<?xml version="1.0" encoding="utf-8"?>
<!-- Generator: Adobe Illustrator 17.0.0, SVG Export Plug-In . SVG Version: 6.00 Build 0)  -->
<!DOCTYPE svg PUBLIC "-//W3C//DTD SVG 1.1//EN" "http://www.w3.org/Graphics/SVG/1.1/DTD/svg11.dtd">
<svg version="1.1" xmlns="http://www.w3.org/2000/svg" xmlns:xlink="http://www.w3.org/1999/xlink" x="0px" y="0px" width="300px"
	 height="300px" viewBox="0 0 300 300" enable-background="new 0 0 300 300" xml:space="preserve">
<g id="Layer_1">
	<path d="M281.08,144.282c-1.206-0.767-2.354-1.498-3.501-2.203c5.81-3.787,10.535-7.525,14.453-11.407l7.968-7.894l-10.077-4.924
		c-3.636-1.777-7.122-3.079-10.652-4.162c6.375-8.244,11.074-17.317,14.712-28.21l3.942-11.806l-12.372,1.364
		c-18.583,2.049-30.604,6.78-39.38,10.235c-4.657,1.833-8.351,3.287-10.742,3.369c-0.16-0.019-1.362-0.238-3.986-2.589
		c-2.554-2.288-5.277-5.541-7.911-8.687c-1.826-2.181-3.714-4.436-5.581-6.408C193.306,44.929,167.396,39.465,150,39.465
		c-17.397,0-43.307,5.464-67.953,31.496c-1.866,1.972-3.755,4.227-5.581,6.408c-2.634,3.146-5.357,6.398-7.91,8.687
		c-2.622,2.35-3.824,2.57-3.988,2.589c-2.39-0.083-6.084-1.537-10.74-3.369c-8.778-3.455-20.797-8.186-39.38-10.235L2.074,73.677
		l3.943,11.806c3.638,10.893,8.336,19.965,14.711,28.21c-3.529,1.083-7.016,2.385-10.653,4.162L0,122.779l7.966,7.893
		c3.919,3.882,8.643,7.62,14.454,11.407c-1.147,0.705-2.294,1.435-3.5,2.202c-0.539,0.342-1.094,0.696-1.671,1.06L5.57,152.725
		l12.242,6.409c9.231,4.831,16.692,7.737,25.618,9.662c-0.323,0.455-0.65,0.922-0.984,1.404l-7.584,10.931l13.216,1.525
		c7.317,0.844,12.699,1.188,18.575,1.188c5.087,0,10.47-0.259,18.047-0.704c0.953-0.056,1.899-0.086,2.813-0.086
		c8.251,0,14.627,2.324,17.952,6.543c3.982,5.053,3.329,12.302,2.08,17.493l-0.77,3.205l1.719,2.812l14.97,24.491l0,0l9.848,16.111
		c1.218,1.993,2.542,3.714,3.939,5.178h25.5c1.397-1.464,2.72-3.185,3.939-5.178l2.02-3.305c0.004-0.006,0.008-0.012,0.012-0.018
		l0.004-0.007l7.812-12.781h0l14.97-24.491l1.719-2.812l-0.771-3.205c-1.249-5.191-1.9-12.438,2.081-17.491
		c3.326-4.221,9.701-6.545,17.952-6.545c0.914,0,1.86,0.029,2.813,0.086c7.578,0.445,12.96,0.704,18.047,0.704
		c5.876,0,11.257-0.344,18.574-1.188l13.217-1.525l-7.584-10.931c-0.334-0.482-0.662-0.949-0.985-1.404
		c8.925-1.926,16.388-4.831,25.618-9.662l12.241-6.409l-11.679-7.383C282.174,144.978,281.619,144.626,281.08,144.282z"/>
	<linearGradient id="SVGID_1_" gradientUnits="userSpaceOnUse" x1="103.154" y1="198.2123" x2="182.092" y2="49.7515">
		<stop  offset="0" style="stop-color:#4A626B"/>
		<stop  offset="0.0616" style="stop-color:#526A73"/>
		<stop  offset="0.1619" style="stop-color:#687F88"/>
		<stop  offset="0.2879" style="stop-color:#8FA6AF"/>
		<stop  offset="0.4" style="stop-color:#BFD9E3"/>
		<stop  offset="0.5682" style="stop-color:#8FA6AF"/>
		<stop  offset="0.7571" style="stop-color:#687F88"/>
		<stop  offset="0.9077" style="stop-color:#526A73"/>
		<stop  offset="1" style="stop-color:#4A626B"/>
	</linearGradient>
	<path fill="url(#SVGID_1_)" d="M93.557,144.511c-8.051-9.559-12.857-21.436-12.857-31.768c0-2.352,0.189-4.729,0.56-7.063
		l0.266-1.677l1.108-1.286c7.218-8.373,18.314-15.099,32.091-19.451l13.31-4.205l-6.146,12.533c-1.918,3.911-2.89,8.098-2.89,12.446
		c0,16.264,13.907,29.495,31.001,29.495s31.001-13.231,31.001-29.495c0-4.348-0.973-8.535-2.89-12.447l-6.145-12.533l13.31,4.206
		c13.777,4.353,24.873,11.079,32.09,19.451l1.109,1.286l0.266,1.677c0.371,2.334,0.56,4.711,0.56,7.063
		c0,10.332-4.807,22.208-12.858,31.768c-6.602,7.841-18.37,17.641-37.717,21.65v66.079l14.39-23.543
		c-2.297-10.102-0.922-18.72,3.99-24.954c5.232-6.64,14.009-10.149,25.383-10.149c1.098,0,2.232,0.035,3.37,0.101
		c7.401,0.436,12.636,0.689,17.49,0.689c4.806,0,9.287-0.251,14.979-0.85c-2.582-3.557-4.837-6.103-8.608-9.213l-2.746-2.266
		l3.541-0.373c14.775-1.554,23.358-3.9,34.978-9.742c-4.806-3.056-8.452-5.314-15.229-7.85l-3.096-1.158l2.916-1.558
		c10.431-5.572,18.041-10.675,23.733-15.929c-5.928-2.63-11.632-3.976-18.668-5.637l-0.881-0.208l-2.645-0.625l1.946-1.898
		c9.599-9.363,16.036-19.416,20.669-32.351c-16.012,2.039-26.697,6.245-34.598,9.355c-5.622,2.213-10.063,3.96-14.163,4.028
		c-6.915,0-13.158-7.455-19.194-14.665c-1.816-2.168-3.53-4.215-5.198-5.977C188.75,53.876,165.539,48.925,150,48.925
		c-15.539,0-38.75,4.951-61.083,28.54c-1.669,1.762-3.383,3.81-5.198,5.977c-6.037,7.21-12.279,14.665-19.169,14.665
		c-4.124-0.068-8.565-1.816-14.187-4.028c-7.9-3.11-18.586-7.315-34.598-9.355c4.633,12.934,11.07,22.989,20.669,32.351l1.945,1.898
		l-2.644,0.625l-0.887,0.209c-7.034,1.66-12.736,3.006-18.663,5.636c5.693,5.254,13.302,10.357,23.734,15.929l2.915,1.558
		l-3.096,1.158c-6.776,2.536-10.422,4.794-15.229,7.85c11.621,5.843,20.203,8.188,34.979,9.742l3.541,0.373l-2.746,2.266
		c-3.772,3.11-6.027,5.656-8.608,9.213c5.692,0.599,10.173,0.85,14.978,0.85c4.855,0,10.089-0.253,17.491-0.689
		c1.137-0.066,2.271-0.101,3.369-0.101c11.375,0,20.152,3.509,25.384,10.149c4.912,6.233,6.287,14.852,3.989,24.954l14.391,23.543
		v-66.079C111.928,162.152,100.16,152.351,93.557,144.511z"/>
	<path fill="#FFFFFF" d="M212.839,106.618c-6.454-7.489-16.739-13.666-29.364-17.655c2.243,4.576,3.5,9.685,3.5,15.077
		c0,19.59-16.555,35.47-36.975,35.47c-20.421,0-36.976-15.88-36.976-35.47c0-5.392,1.256-10.501,3.501-15.077
		c-12.626,3.989-22.91,10.166-29.365,17.655c-0.319,2.007-0.485,4.05-0.485,6.125c0,15.208,13.682,43.111,50.575,48.4l0,97.745
		c7.73,8.102,17.77,8.102,25.5,0v-97.745c36.893-5.288,50.575-33.191,50.575-48.4C213.325,110.669,213.159,108.626,212.839,106.618z
		"/>
</g>
<g id="Scrap" display="none">
	<path display="inline" fill="#FFFFFF" d="M212.839,106.618c-6.454-7.489-16.739-13.666-29.364-17.655
		c2.243,4.576,3.5,9.685,3.5,15.077c0,19.59-16.555,35.47-36.975,35.47c-20.421,0-36.976-15.88-36.976-35.47
		c0-5.392,1.256-10.501,3.501-15.077c-12.626,3.989-22.91,10.166-29.365,17.655c-0.319,2.007-0.485,4.05-0.485,6.125
		c0,15.208,13.682,43.111,50.575,48.4v97.745c7.73,8.102,17.77,8.102,25.5,0v-97.745c36.893-5.288,50.575-33.191,50.575-48.4
		C213.325,110.669,213.159,108.626,212.839,106.618z"/>
</g>
</svg>
